<mxfile host="Electron" agent="Mozilla/5.0 (Macintosh; Intel Mac OS X 10_15_7) AppleWebKit/537.36 (KHTML, like Gecko) draw.io/27.0.2 Chrome/134.0.6998.205 Electron/35.3.0 Safari/537.36" version="27.0.2">
  <diagram name="Page-1" id="ItgQpY1RIdEvj2Atxmpm">
    <mxGraphModel dx="1018" dy="748" grid="1" gridSize="10" guides="1" tooltips="1" connect="1" arrows="1" fold="1" page="1" pageScale="1" pageWidth="827" pageHeight="1169" math="0" shadow="0">
      <root>
        <mxCell id="0" />
        <mxCell id="1" parent="0" />
        <mxCell id="ZFn0Ya00yzNnpdPavL7I-5" style="edgeStyle=orthogonalEdgeStyle;rounded=0;orthogonalLoop=1;jettySize=auto;html=1;entryX=0.5;entryY=0;entryDx=0;entryDy=0;" edge="1" parent="1" source="ZFn0Ya00yzNnpdPavL7I-1" target="ZFn0Ya00yzNnpdPavL7I-2">
          <mxGeometry relative="1" as="geometry">
            <Array as="points">
              <mxPoint x="417" y="170" />
              <mxPoint x="191" y="170" />
            </Array>
          </mxGeometry>
        </mxCell>
        <mxCell id="ZFn0Ya00yzNnpdPavL7I-6" style="edgeStyle=orthogonalEdgeStyle;rounded=0;orthogonalLoop=1;jettySize=auto;html=1;entryX=0.5;entryY=0;entryDx=0;entryDy=0;" edge="1" parent="1" source="ZFn0Ya00yzNnpdPavL7I-1" target="ZFn0Ya00yzNnpdPavL7I-3">
          <mxGeometry relative="1" as="geometry">
            <Array as="points">
              <mxPoint x="417" y="170" />
              <mxPoint x="337" y="170" />
            </Array>
          </mxGeometry>
        </mxCell>
        <mxCell id="ZFn0Ya00yzNnpdPavL7I-7" style="edgeStyle=orthogonalEdgeStyle;rounded=0;orthogonalLoop=1;jettySize=auto;html=1;entryX=0.5;entryY=0;entryDx=0;entryDy=0;" edge="1" parent="1" source="ZFn0Ya00yzNnpdPavL7I-1" target="ZFn0Ya00yzNnpdPavL7I-4">
          <mxGeometry relative="1" as="geometry">
            <Array as="points">
              <mxPoint x="417" y="170" />
              <mxPoint x="487" y="170" />
            </Array>
          </mxGeometry>
        </mxCell>
        <mxCell id="ZFn0Ya00yzNnpdPavL7I-9" style="edgeStyle=orthogonalEdgeStyle;rounded=0;orthogonalLoop=1;jettySize=auto;html=1;entryX=0.5;entryY=0;entryDx=0;entryDy=0;" edge="1" parent="1" source="ZFn0Ya00yzNnpdPavL7I-1" target="ZFn0Ya00yzNnpdPavL7I-8">
          <mxGeometry relative="1" as="geometry">
            <Array as="points">
              <mxPoint x="417" y="170" />
              <mxPoint x="637" y="170" />
            </Array>
          </mxGeometry>
        </mxCell>
        <mxCell id="ZFn0Ya00yzNnpdPavL7I-1" value="Agent&lt;div&gt;Memory&lt;/div&gt;" style="rounded=1;whiteSpace=wrap;html=1;fillColor=#f8cecc;strokeColor=#b85450;" vertex="1" parent="1">
          <mxGeometry x="357" y="90" width="120" height="60" as="geometry" />
        </mxCell>
        <mxCell id="ZFn0Ya00yzNnpdPavL7I-2" value="Session Storage&lt;div&gt;(called Storage)&lt;/div&gt;" style="rounded=1;whiteSpace=wrap;html=1;fillColor=#b0e3e6;strokeColor=#0e8088;" vertex="1" parent="1">
          <mxGeometry x="131" y="210" width="120" height="60" as="geometry" />
        </mxCell>
        <mxCell id="ZFn0Ya00yzNnpdPavL7I-3" value="User Memories&lt;div&gt;(Memory)&lt;/div&gt;" style="rounded=1;whiteSpace=wrap;html=1;fillColor=#b1ddf0;strokeColor=#10739e;" vertex="1" parent="1">
          <mxGeometry x="277" y="210" width="120" height="60" as="geometry" />
        </mxCell>
        <mxCell id="ZFn0Ya00yzNnpdPavL7I-4" value="Session Summary&lt;div&gt;(chat summaries)&lt;/div&gt;" style="rounded=1;whiteSpace=wrap;html=1;fillColor=#d0cee2;strokeColor=#56517e;" vertex="1" parent="1">
          <mxGeometry x="427" y="210" width="120" height="60" as="geometry" />
        </mxCell>
        <mxCell id="ZFn0Ya00yzNnpdPavL7I-8" value="Agent Context&lt;div&gt;(In Context Mem)&lt;/div&gt;" style="rounded=1;whiteSpace=wrap;html=1;fillColor=#b0e3e6;strokeColor=#0e8088;" vertex="1" parent="1">
          <mxGeometry x="577" y="210" width="120" height="60" as="geometry" />
        </mxCell>
      </root>
    </mxGraphModel>
  </diagram>
</mxfile>
